<?xml version="1.0" standalone="no"?>
<!DOCTYPE svg PUBLIC "-//W3C//DTD SVG 20010904//EN"
 "http://www.w3.org/TR/2001/REC-SVG-20010904/DTD/svg10.dtd">
<svg version="1.0" xmlns="http://www.w3.org/2000/svg"
 width="512.000000pt" height="512.000000pt" viewBox="0 0 512.000000 512.000000"
 preserveAspectRatio="xMidYMid meet">
<metadata>
Created by potrace 1.11, written by Peter Selinger 2001-2013
</metadata>
<g transform="translate(0.000000,512.000000) scale(0.100000,-0.100000)"
fill="#000000" stroke="none">
<path d="M2495 5063 c-72 -43 -544 -316 -600 -347 -103 -58 -141 -79 -150 -86
-8 -6 -374 -217 -518 -299 -85 -48 -334 -192 -347 -201 -8 -5 -51 -30 -95 -55
-112 -63 -161 -92 -225 -130 -30 -18 -71 -41 -90 -52 -19 -11 -52 -30 -72 -42
l-38 -23 0 -1269 0 -1268 93 -54 c173 -102 992 -574 1051 -607 33 -18 99 -57
149 -86 49 -30 91 -54 92 -54 1 0 54 -30 116 -66 63 -37 130 -76 149 -86 19
-11 64 -37 100 -58 36 -21 81 -47 100 -58 19 -10 106 -60 192 -111 l157 -91
130 75 c71 41 145 83 163 93 116 66 778 448 798 461 14 8 77 45 140 81 63 36
124 72 135 78 11 7 202 117 425 246 l405 234 0 1272 0 1273 -355 205 c-195
112 -368 212 -385 222 -16 9 -219 126 -450 260 -231 134 -436 252 -455 263
-19 11 -151 86 -292 168 -142 82 -259 149 -260 149 -2 -1 -30 -17 -63 -37z
m-115 -1432 c374 -76 599 -257 699 -559 18 -56 26 -91 46 -209 7 -44 7 -232
-1 -303 -33 -311 -200 -541 -478 -657 -106 -44 -234 -76 -366 -91 -84 -9 -442
-9 -545 1 -131 13 -179 18 -192 22 -10 4 -13 192 -13 900 l0 895 43 1 c23 0
51 2 62 5 11 2 65 6 120 10 55 3 102 8 105 11 2 2 97 2 210 0 156 -4 230 -10
310 -26z m1910 4 c100 -20 192 -49 286 -91 58 -26 60 -28 43 -71 -6 -15 -15
-41 -19 -58 -16 -60 -62 -210 -67 -218 -3 -4 -10 -4 -16 2 -31 25 -184 93
-253 112 -131 36 -301 27 -389 -20 -50 -26 -67 -49 -81 -101 -33 -128 54 -203
351 -305 378 -130 517 -262 532 -505 12 -188 -63 -346 -214 -446 -54 -36 -183
-88 -245 -100 -103 -19 -158 -23 -293 -20 -156 4 -241 17 -377 60 -63 20 -193
77 -206 91 -4 4 87 326 94 334 2 2 32 -15 68 -38 138 -90 272 -130 442 -129
169 0 267 39 304 121 37 83 5 176 -82 235 -43 28 -168 82 -283 121 -304 102
-446 220 -491 410 -12 49 -13 202 -2 241 46 167 151 276 323 335 28 9 55 18
60 19 49 11 126 26 150 29 46 6 325 0 365 -8z m-3202 -4 l23 -1 -4 -847 c-2
-467 -7 -866 -11 -888 -23 -118 -81 -249 -146 -331 -49 -62 -189 -164 -273
-199 l-35 -15 -116 129 c-64 71 -116 131 -116 134 0 3 26 17 57 32 143 65 220
176 238 340 1 17 3 393 4 837 l1 807 28 3 c22 2 261 2 350 -1z"/>
<path d="M1948 3322 c-17 -3 -18 -40 -18 -596 l0 -592 108 2 c138 2 209 10
302 35 212 57 333 190 369 406 13 80 6 276 -13 346 -72 264 -272 393 -624 401
-59 1 -115 0 -124 -2z"/>
</g>
</svg>
