<svg xmlns="http://www.w3.org/2000/svg" viewBox="0 0 32 32" enable-background="new 0 0 32 32"><switch><g><path fill="#3e7ea4" d="m5.7 16.6c-1.1 0-2.1.9-2.1 2.1 0 .4.1.8.3 1.1.4.6 1 1 1.8 1 .7 0 1.4-.4 1.8-1 .2-.3.3-.7.3-1.1 0-1.2-1-2.1-2.1-2.1m1.1 2.8c-.2.4-.6.6-1.1.6-.5 0-.9-.3-1.1-.6-.1-.2-.2-.4-.2-.7 0-.7.6-1.3 1.3-1.3.7 0 1.3.6 1.3 1.3 0 .3-.1.5-.2.7m24.2-4.5c0-.1-.2-1.2-.2-1.2l.1-.5c0 0 0 0 0 0-.3-.1-1.1.1-1.1.1-.2-.1-2.1-.2-2.1-.2-3.7-1.8-6.3-2.2-6.3-2.2s-2.2-.1-5.1 0c-2.8.1-5.6 2.4-5.8 2.5-.2.1-.2-.1-.2-.1-6.5 0-9.2 2.1-9.2 2.1s.1.9-.2 1.2c-.3.3.2 1.8.2 1.8l-.3.2v.5c.6.4 1.5.6 2.5.7-.2-.4-.3-.7-.3-1.1 0-1.5 1.2-2.7 2.7-2.7 1.5 0 2.7 1.2 2.7 2.7 0 .4-.1.8-.3 1.2 1.9 0 7-.1 9.1-.2 1.2 0 3.1 0 4.9.1-.1-.3-.2-.7-.2-1 0-1.6 1.3-3 3-3 1.6 0 3 1.3 3 3 0 .3 0 .6-.1.9 1-.3 2.2-.8 2.2-.8 2-1.6 1-3.9 1-4m-14.9-3.2h2.8v1.6h-6.9c0 0 2.6-1.7 4.1-1.6m-1.4 6.9c-.4 0-1-.3-.7-1l.7-2.3c0 0 0-.1 0-.1l-1.8-.7h2.9c.7 0 1 .3.8 1l-.6 2.1c-.2.6-.5 1.1-1.3 1m2.3 0c0 0 0 0 0 0-.5 0-1-.3-.8-1l.7-2.3c.2-.6.6-.8 1.1-.8.7 0 1 .3.8 1l-.6 2.1c0 .1-.1.2-.1.2l1.8.7h-2.9zm2.9-5.3v-1.6h1c1.5 0 4.1 1.6 4.1 1.6h-5.1m5 3c-1.3 0-2.4 1.1-2.4 2.4 0 .4.1.7.2 1 .4.8 1.2 1.4 2.1 1.4.9 0 1.7-.6 2.1-1.3.2-.3.2-.7.2-1 .2-1.4-.9-2.5-2.2-2.5m1.4 3c-.2.5-.8.9-1.4.9-.6 0-1.1-.4-1.4-.9-.1-.2-.1-.4-.1-.6 0-.8.7-1.5 1.5-1.5.8 0 1.5.7 1.5 1.5.1.2 0 .4-.1.6m-8.4-4.1c-.2 0-.2.1-.2.2l-.7 2.4c0 .1 0 .2.1.2.1 0 .2-.1.3-.2l.7-2.4c0-.1 0-.2-.2-.2m-2.2 0c-.2 0-.2.1-.2.2l-.7 2.4c0 .1 0 .2.1.2.1 0 .2-.1.3-.2l.7-2.4c-.1-.1-.1-.2-.2-.2"/></g></switch></svg>